<?xml version="1.0" encoding="UTF-8" standalone="no"?><!DOCTYPE svg PUBLIC "-//W3C//DTD SVG 1.1//EN" "http://www.w3.org/Graphics/SVG/1.1/DTD/svg11.dtd"><svg width="100%" height="100%" viewBox="0 0 61 14" version="1.1" xmlns="http://www.w3.org/2000/svg" xmlns:xlink="http://www.w3.org/1999/xlink" xml:space="preserve" xmlns:serif="http://www.serif.com/" style="fill-rule:evenodd;clip-rule:evenodd;stroke-linejoin:round;stroke-miterlimit:2;"><g><path d="M51.578,0.348c0.489,-0.146 1.561,-0.364 2.637,0.089c0.715,0.3 1.43,0.883 1.937,1.983c0.051,0.088 0.021,0.201 -0.067,0.252c-0.087,0.051 -0.2,0.021 -0.251,-0.067c-0.592,-0.827 -1.262,-1.196 -1.894,-1.354c-0.495,-0.123 -0.959,-0.085 -1.339,-0.021c-0.554,0.092 -0.93,0.269 -0.93,0.269c-0.147,0.037 -0.304,0.013 -0.433,-0.067c-0.656,-0.453 -1.36,-0.509 -1.995,-0.429c-1.202,0.153 -2.185,0.761 -2.185,0.761c-0.079,0.065 -0.195,0.053 -0.259,-0.026c-0.065,-0.078 -0.053,-0.195 0.026,-0.259c0,0 1.202,-1.211 2.783,-1.444c0.628,-0.093 1.3,-0.004 1.97,0.313Z" style="fill:#0070c0;"/><path d="M57.56,4.447c0.329,-0.096 1.028,-0.232 1.729,0.064c0.47,0.198 0.941,0.579 1.274,1.303c0.034,0.057 0.015,0.13 -0.042,0.164c-0.057,0.034 -0.131,0.015 -0.164,-0.042c-0.395,-0.536 -0.838,-0.766 -1.252,-0.866c-0.751,-0.182 -1.41,0.165 -1.41,0.165c-0.12,0.055 -0.259,0.046 -0.371,-0.022c-0.425,-0.291 -0.879,-0.323 -1.29,-0.272c-0.788,0.098 -1.434,0.484 -1.434,0.484c-0.05,0.042 -0.126,0.035 -0.168,-0.016c-0.043,-0.05 -0.036,-0.126 0.015,-0.168c0,0 0.774,-0.818 1.815,-0.988c0.412,-0.067 0.856,-0.009 1.298,0.194Z" style="fill:#0070c0;"/><path d="M53.951,8.18c0.329,-0.097 1.028,-0.233 1.728,0.063c0.471,0.199 0.942,0.58 1.275,1.303c0.033,0.057 0.014,0.131 -0.043,0.165c-0.056,0.033 -0.13,0.014 -0.164,-0.043c-0.395,-0.535 -0.837,-0.766 -1.252,-0.866c-0.75,-0.181 -1.41,0.166 -1.41,0.166c-0.119,0.054 -0.258,0.046 -0.37,-0.022c-0.425,-0.291 -0.879,-0.324 -1.29,-0.273c-0.788,0.099 -1.434,0.485 -1.434,0.485c-0.051,0.042 -0.126,0.035 -0.169,-0.016c-0.042,-0.051 -0.035,-0.127 0.016,-0.169c0,0 0.774,-0.818 1.815,-0.987c0.412,-0.067 0.855,-0.01 1.298,0.194Z" style="fill:#0070c0;"/><g><path d="M1.81,9.6c0,0.43 0.065,0.81 0.196,1.14c0.13,0.329 0.303,0.605 0.518,0.829c0.215,0.223 0.463,0.393 0.744,0.508c0.28,0.116 0.572,0.174 0.875,0.174c0.232,0 0.448,-0.04 0.649,-0.12c0.2,-0.08 0.388,-0.188 0.562,-0.325c0.175,-0.137 0.339,-0.295 0.492,-0.475c0.153,-0.179 0.3,-0.368 0.44,-0.567l0.68,0.499c-0.147,0.235 -0.324,0.461 -0.531,0.68c-0.207,0.218 -0.439,0.411 -0.697,0.577c-0.257,0.167 -0.538,0.299 -0.841,0.399c-0.304,0.099 -0.625,0.149 -0.964,0.149c-0.571,0 -1.097,-0.083 -1.578,-0.249c-0.481,-0.167 -0.896,-0.402 -1.245,-0.705c-0.348,-0.303 -0.621,-0.668 -0.816,-1.093c-0.196,-0.426 -0.294,-0.899 -0.294,-1.421c0,-0.506 0.093,-0.971 0.279,-1.394c0.186,-0.424 0.447,-0.791 0.785,-1.099c0.338,-0.308 0.742,-0.548 1.213,-0.721c0.471,-0.173 0.992,-0.26 1.563,-0.26c0.382,0 0.731,0.045 1.047,0.135c0.316,0.09 0.604,0.214 0.863,0.372c0.26,0.158 0.491,0.347 0.695,0.567c0.204,0.22 0.384,0.463 0.541,0.727l-0.685,0.479c-0.14,-0.199 -0.293,-0.386 -0.458,-0.562c-0.164,-0.177 -0.34,-0.331 -0.526,-0.463c-0.185,-0.132 -0.381,-0.236 -0.587,-0.313c-0.205,-0.076 -0.419,-0.115 -0.64,-0.115c-0.304,0 -0.593,0.057 -0.869,0.171c-0.275,0.115 -0.517,0.283 -0.726,0.507c-0.209,0.223 -0.375,0.5 -0.499,0.829c-0.124,0.329 -0.186,0.709 -0.186,1.14Z" style="fill:#0070c0;fill-rule:nonzero;"/><path d="M11.643,6.151l3.111,6.77l-1.663,0l-0.832,-1.81l-2.578,0l-0.871,1.81l-1.105,0l3.233,-6.77l0.705,0Zm-1.654,4.344l1.996,0l-0.983,-2.143l-1.013,2.143Z" style="fill:#0070c0;fill-rule:nonzero;"/><path d="M15.683,6.288l1.629,0l0,5.953l3.386,0l0,0.68l-5.015,0l0,-6.633Z" style="fill:#0070c0;fill-rule:nonzero;"/><path d="M21.744,6.288l2.848,0c0.381,0 0.731,0.041 1.049,0.122c0.318,0.082 0.591,0.197 0.819,0.345c0.229,0.148 0.406,0.327 0.533,0.536c0.128,0.208 0.191,0.44 0.191,0.694c0,0.157 -0.017,0.302 -0.051,0.436c-0.034,0.133 -0.091,0.259 -0.169,0.376c-0.078,0.118 -0.182,0.23 -0.31,0.338c-0.129,0.108 -0.288,0.217 -0.477,0.328c0.195,0.062 0.375,0.144 0.538,0.247c0.163,0.103 0.304,0.223 0.423,0.362c0.119,0.138 0.212,0.292 0.279,0.46c0.067,0.168 0.1,0.346 0.1,0.535c0,0.261 -0.06,0.504 -0.179,0.729c-0.119,0.225 -0.288,0.421 -0.508,0.587c-0.221,0.167 -0.485,0.298 -0.793,0.394c-0.308,0.096 -0.65,0.144 -1.025,0.144l-3.268,0l0,-6.633Zm1.629,2.876l1.072,0c0.173,0 0.327,-0.027 0.462,-0.08c0.135,-0.054 0.25,-0.129 0.343,-0.225c0.092,-0.097 0.163,-0.212 0.212,-0.345c0.049,-0.134 0.074,-0.279 0.074,-0.436c0,-0.173 -0.031,-0.331 -0.093,-0.474c-0.062,-0.144 -0.157,-0.267 -0.284,-0.37c-0.127,-0.102 -0.289,-0.182 -0.484,-0.239c-0.196,-0.057 -0.427,-0.086 -0.695,-0.086l-0.607,0l0,2.255Zm0,3.077l0.901,0c0.264,0 0.492,-0.028 0.684,-0.085c0.193,-0.057 0.352,-0.136 0.477,-0.235c0.126,-0.1 0.219,-0.219 0.279,-0.357c0.061,-0.139 0.091,-0.29 0.091,-0.453c0,-0.186 -0.028,-0.358 -0.083,-0.516c-0.056,-0.158 -0.146,-0.296 -0.272,-0.413c-0.125,-0.118 -0.29,-0.209 -0.494,-0.274c-0.204,-0.065 -0.452,-0.098 -0.746,-0.098l-0.837,0l0,2.431Z" style="fill:#0070c0;fill-rule:nonzero;"/><path d="M34.493,6.288l0,0.567l-2.295,0l0,6.066l-1.624,0l0,-6.066l-2.299,0l0,-0.567l6.218,0Z" style="fill:#0070c0;fill-rule:nonzero;"/><path d="M40.515,6.288l0,0.567l-3.327,0l0,2.187l2.764,0l0,0.568l-2.764,0l0,2.631l3.327,0l0,0.68l-4.956,0l0,-6.633l4.956,0Z" style="fill:#0070c0;fill-rule:nonzero;"/><path d="M43.21,9.6c0,0.43 0.065,0.81 0.196,1.14c0.13,0.329 0.303,0.605 0.518,0.829c0.216,0.223 0.463,0.393 0.744,0.508c0.28,0.116 0.572,0.174 0.876,0.174c0.231,0 0.447,-0.04 0.648,-0.12c0.2,-0.08 0.388,-0.188 0.562,-0.325c0.175,-0.137 0.339,-0.295 0.492,-0.475c0.153,-0.179 0.3,-0.368 0.44,-0.567l0.68,0.499c-0.147,0.235 -0.323,0.461 -0.531,0.68c-0.207,0.218 -0.439,0.411 -0.697,0.577c-0.257,0.167 -0.538,0.299 -0.841,0.399c-0.303,0.099 -0.625,0.149 -0.964,0.149c-0.57,0 -1.096,-0.083 -1.577,-0.249c-0.481,-0.167 -0.896,-0.402 -1.245,-0.705c-0.349,-0.303 -0.622,-0.668 -0.817,-1.093c-0.196,-0.426 -0.294,-0.899 -0.294,-1.421c0,-0.506 0.093,-0.971 0.279,-1.394c0.186,-0.424 0.448,-0.791 0.785,-1.099c0.338,-0.308 0.742,-0.548 1.213,-0.721c0.472,-0.173 0.993,-0.26 1.563,-0.26c0.382,0 0.731,0.045 1.047,0.135c0.316,0.09 0.604,0.214 0.864,0.372c0.259,0.158 0.49,0.347 0.694,0.567c0.204,0.22 0.384,0.463 0.541,0.727l-0.685,0.479c-0.14,-0.199 -0.293,-0.386 -0.457,-0.562c-0.165,-0.177 -0.34,-0.331 -0.526,-0.463c-0.186,-0.132 -0.382,-0.236 -0.587,-0.313c-0.206,-0.076 -0.419,-0.115 -0.641,-0.115c-0.304,0 -0.593,0.057 -0.869,0.171c-0.275,0.115 -0.517,0.283 -0.726,0.507c-0.209,0.223 -0.375,0.5 -0.499,0.829c-0.124,0.329 -0.186,0.709 -0.186,1.14Z" style="fill:#0070c0;fill-rule:nonzero;"/></g></g></svg>